# xmcd
#
# Track frame offsets:
#	150
#	4001
#	113777
#	124625
#	147572
#	183076
#	278268
#
# Disc length: 4267 seconds
#
# Revision: 1
# Processed by: cddbd v1.5.2PL0 Copyright (c) Steve Scherf et al.
# Submitted via: audiograbber 1.83.01
#
DISCID=5310a907
DTITLE=Grateful Dead - 73-03-15 Nassau Veterans Memorial Coliseum, Uniondale NY
DYEAR=1900
DGENRE=
TTITLE0=Tuning
TTITLE1=Playing In The Band
TTITLE2=El Paso
TTITLE3=Box Of Rain
TTITLE4=Tennessee Jed
TTITLE5=Playing In The Band
TTITLE6=Truckin' Jam > Nobody's Fault But Mine Jam
EXTD=
EXTT0=
EXTT1=
EXTT2=
EXTT3=
EXTT4=
EXTT5=
EXTT6=
PLAYORDER=
